<svg id="logo" xmlns="http://www.w3.org/2000/svg" viewBox="0 0 2546.62 356.56">
	<title>Stratox</title>
	<style>
	path {
		fill: #fff;
	}
	</style>
	<path d="M66.92,218.11c-23.18,1.73-40.12-5.1-50.84-22.52S0,152.2,0,117Q0,61.33,16.49,33.26c11-18.76,29.09-27.81,54.29-27.85q96-.19,192-0.35c8.64,0,16.54,3,23.7,6.31a64.53,64.53,0,0,1,18.13,14.36C310,32,313.09,41.27,315.25,53.52L315.17,84q-101.51,2.49-203,5.51c-9.63.29-16.11,2.75-19.45,5.9s-5,9.14-5,17.18c0,7.41,2.27,13,6.83,16.37s10.91,5.06,19.06,4.7q68.85-3.05,137.73-5.74c11.11-.43,20.3,1.06,27.58,4.55a73.51,73.51,0,0,1,17.56,11.25,56,56,0,0,1,12.18,16.58,134,134,0,0,1,7.7,28.6,208.83,208.83,0,0,1,2.51,33.74c-0.09,35-6.57,60.74-19.44,77.52s-33.73,26.67-62.58,29.61q-90.43,9.18-180.73,20c-12.81,1.53-22.59-.12-29.35-5.06s-10.84-10.8-14.28-17.34c-3.94-7.8-5.61-17-5.61-27.63q0-17.26,0-34.52,98.55-9.13,197.22-16.84c6.9-.54,13.07-1.58,18.51-5.22s8.16-8.61,8.17-16c0-5.22-1.22-8.87-3.68-11.47a18.77,18.77,0,0,0-9.61-5.78c-3.95-.82-8.27-1.73-12.95-1.42l-14.06.93Q128.68,213.53,66.92,218.11Z"/><path d="M814.92,138.78q-0.2,74.4-.4,148.8-45.45,2-90.89,4.47,0.43-145.14.87-290.28L936,1.71a219.11,219.11,0,0,1,46.87,5.22c12.72,2.74,23,8,30.73,14.62s13.44,15.89,17,27.21S1036,74.59,1036.26,92c0,15.89-1.22,29.51-3.59,40.74s-6.28,20.63-11.73,28.14A53.6,53.6,0,0,1,999.4,178.3q-13.37,6.11-32.66,8.07,12.22,11.17,25.55,23.25t27,24.12q13.71,12,26.87,23.67c8.77,7.76,17,15.22,24.65,21.92q-52.72,1-105.43,2.62C915.21,234.83,865,187.3,814.92,138.78ZM929,125a26.07,26.07,0,0,0,16.33-5.69c4.7-3.74,7.06-9,7.08-15.82A17.22,17.22,0,0,0,945.8,89.3c-4.44-3.63-9.63-5.15-15.56-5.09q-57.59.58-115.17,1.35Q815,106.29,815,127,872,125.89,929,125Z"/><path d="M1182.11,277.72q-51.24.46-102.47,1.43c48.14-93.4,96.19-185.56,144.16-277.48h107.84C1379,93.61,1426.43,185.81,1474,279.27q-50.68-1-101.36-1.48-11.34-22.27-22.67-44.48-57.16-.36-114.33-0.18,17.46-35.37,34.89-70.67,22.26,0,44.52,0c-3.47-5.12-6.68-12.21-9.65-18s-5.94-11.23-8.91-17-6.06-11.48-9.27-17.42-6.68-12.3-10.39-19.26Q1229.51,184,1182.11,277.72Z"/><path d="M1651.72,284.28q-45.46-1.68-90.94-2.95-0.19-101.41-.38-202.82-54.72-.43-109.45-0.7,0-38.07-.09-76.14,153.15,0,306.3.08l0.22,78.83q-53.07-.7-106.15-1.25Q1651.48,181.81,1651.72,284.28Z"/><path d="M1800.06,80.32c-0.06-21.09,4.92-38.13,16.13-51.23s27.38-21.3,49.11-24.57c5.68-.54,11.21-1,16.9-1.43s12.34-.75,20.12-1S1919.26,1,1929.88.83,1953.56,0,1969.12,0h40.39c10.87,0,20.14.79,27.8,1.08s14.27,1,19.83,1.4,10.93,1.24,16.13,2.11q32.62,5.2,49.22,26.52c11,14.19,16.63,32.83,16.7,55.61q0.21,71.8.42,143.6c0,13.14-1.33,23.83-4,32.67s-7.65,15.4-14.78,23.48l0.37,0a50.5,50.5,0,0,1-20,14.84c-7.4,3.18-16.78,5.32-28.13,6.16a327.12,327.12,0,0,1-41.86-.12q-24.83-1.43-61.52-3.94-23-1.58-38.92-2.78L1903,298.5q-11.87-.95-20.58-2.28t-16.88-3a100.87,100.87,0,0,1-27.28-9.38,64.94,64.94,0,0,1-19.89-16.18l0.37,0c-7.2-8.4-11.64-15-14.51-23.54s-3.74-18.53-3.77-30.7Q1800.25,146.85,1800.06,80.32Zm84.64,125.37c0,3.3.12,4.91,2.35,6.25s5.54,1.44,12,1.72q70.62,3.11,141.21,6.92c11.86,0.64,20.63-.5,20.61-6.51q-0.18-58.34-.36-116.68a11.11,11.11,0,0,0-5-8.88c-2.35-1.48-8.17-2.94-14.59-3.07q-71.15-1.5-142.31-2.71c-6.18-.11-9.43,1.33-11.77,3.08s-2.5,4.75-2.49,7.77Q1884.52,149.63,1884.69,205.69Z"/><path d="M503.75,1.9L547,64,435.59,1.93,366.7,2q-0.12,43.34-.24,86.68,54.68-1.36,109.37-2.55-0.34,111.16-.68,222.31,45.38-3.54,90.79-6.68,0.35-108.75.69-217.51,53.06-1,106.12-1.9,0.12-40.26.25-80.53Z"/><path d="M2417.54,173.86q61.69-82.32,123.55-171.59L2421,2.16C2409.93,20,2399,33.45,2388.3,49s-21.62,31.74-32.7,47.26q-33.23-48.09-66.5-94.21L2170.89,2c9.17,13.61,19,26.09,29.38,39.57s20.94,28.57,31.6,42.76,21.18,28.44,31.59,42.74,20.3,28.11,29.71,41.4q-34.65,41.91-69.28,82.14l149.8-61.88L2177.55,302.76h0c-3,4.5-7.47,9-11.44,13.48,41,3.58,82.16,7.4,123.1,11.47q33.57-41,67.27-83.61,34.12,47.9,68.23,98,61,6.88,121.91,14.49Q2482.21,261.06,2417.54,173.86Z"/>
</svg>
