<svg id="logo" xmlns="http://www.w3.org/2000/svg" viewBox="0 0 2547.17 355.05">
	<title>Stratox</title>
	<style>
	path {
		fill: #fff;
	}
	</style>
	<path d="M498,3L536.31,62.5,440.53,3.09h0l-75.2.08q-0.12,42.09-.23,84.18Q419.94,86,474.79,84.8,474.44,196,474.1,307.27q45.2-3.52,90.43-6.64,0.35-108.84.69-217.68,53.19-1,106.39-1.9l0.24-78.2Q584.9,2.93,498,3Z"/>
	<path d="M2289.92,326.31q-61.42-6.08-122.89-11.43,63.29-71.42,126.61-147.81-14.12-19.93-29.72-41.39T2232.33,83q-16-21.28-31.6-41.49T2171.34,3.16l118.23,0.15q33.27,45.51,66.51,92.9,16.63-23.27,32.71-46.57t32.73-46.13L2541.6,3.7Q2479.71,92.38,2418,173.81q64.69,86.71,129.14,181.25-60.92-7.58-121.9-14.43-34.06-50.07-68.19-97.91Q2323.49,285.36,2289.92,326.31Z"/>
	<path d="M1903.3,297.23l7.47,0.58L2139.85,220q-0.2-67.31-.39-134.61c-0.06-22.77-5.62-41.33-16.65-55.51s-27.44-23-49.19-26.43q-7.79-1.3-16.13-1.95t-19.83-1.08Q2026.16,0,2009.85,0h-40.4q-23.35,0-39.29.2t-27.61.61q-11.67.41-20.2,1t-17,1.43q-32.6,4.9-49.41,24.57c-11.21,13.1-16.78,30.13-16.72,51.22q0.2,66.52.39,133,0.05,18.25,4.35,31T1819,267l-0.37,0a74.74,74.74,0,0,0,19.89,15.89q10.59,5.67,27.28,9.08,8.16,1.7,16.88,3T1903.3,297.23ZM1886.14,85.12q3.51-2.61,12.78-2.46,71.17,1.23,142.33,2.73,9.64,0.2,13.17,2.42T2058,96q0.18,58.29.36,116.58,0,9-17.76,8-70.6-3.82-141.23-6.93-9.65-.43-13-2.42t-3.36-6.94q-0.17-56-.35-112.07A8.41,8.41,0,0,1,1886.14,85.12Z"/>
	<path d="M2139.62,239.58L1956,302.6c15,1,64.23,2.9,75.53,3.54q24.82,1.41,41.86.18t28.13-6a57.27,57.27,0,0,0,20-14.53l-0.37,0A55.87,55.87,0,0,0,2135.9,262C2137.16,257.82,2139,244.66,2139.62,239.58Z"/>
	<path d="M1651.17,283q-45.28-1.66-90.58-2.92-0.19-101.45-.38-202.9-54.88-.43-109.76-0.69,0-37-.09-73.91,153.26,0,306.53.14,0.11,38.26.21,76.52-53.2-.7-106.41-1.24Q1650.93,180.55,1651.17,283Z"/>
	<path d="M1182.31,276.57q-51.25.46-102.49,1.42C1128,185.3,1176,93.84,1224,2.61h107.86c47.36,91.24,94.81,182.75,142.34,275.48q-50.69-1-101.38-1.47-11.34-22.39-22.67-44.73-57.17-.35-114.34-0.17,17.46-34.5,34.9-68.93,22.26,0,44.53,0-5.2-10.07-9.65-18.79l-8.91-17.42q-4.45-8.71-9.27-17.61T1277,89.66Q1229.72,182.91,1182.31,276.57Z"/>
	<path d="M813.08,137.6q-0.2,74.45-.41,148.9-45.27,2-90.53,4.46,0.43-144.07.86-288.14,106.56-.08,213.12-0.13,27.8,0,46.88,4.1t30.74,14.07q11.66,10,17,26.94T1036.44,91q0,23.84-3.59,40.68t-11.73,28.11a53.57,53.57,0,0,1-21.55,17.37q-13.37,6.11-32.66,8.06,12.22,11.17,25.56,23.25t27,24.13q13.71,12,26.87,23.68T1071,278.16q-52.73,1-105.44,2.62C914.71,233.66,863.88,186.13,813.08,137.6ZM929.19,124a26.13,26.13,0,0,0,16.33-5.76q7.05-5.61,7.08-15.85A17.76,17.76,0,0,0,946,87.84a23.47,23.47,0,0,0-15.56-5.37q-58.59.58-117.17,1.36-0.06,21.07-.11,42.14Q871.15,124.81,929.19,124Z"/>
	<path d="M66.93,218.37C43.75,220.1,26.81,212.45,16.09,195S0,151.23,0,116.08C0,79,5.49,50.85,16.49,32.11s29.1-28,54.3-28l192-.32a74.83,74.83,0,0,1,23.71,6.31,61.88,61.88,0,0,1,17.38,14.37q8.12,9.41,9.94,27.8,0,16-.08,31.92-100.78,2.5-201.52,5.52-14.44.43-19.45,5.17t-5,16.81q0,11.11,6.83,16.11t19.06,4.45q68.86-3,137.75-5.7,16.67-.65,27.58,4.62a73.56,73.56,0,0,1,17.57,11.28A56.12,56.12,0,0,1,308.72,159a134.09,134.09,0,0,1,7.7,28.61,208.88,208.88,0,0,1,2.51,33.74c-0.09,35-6.58,60.75-19.44,77.53s-33.74,26.68-62.59,29.61q-90.45,9.15-180.77,19.9c-12.81,1.53-22.59-.13-29.36-5.08a50.48,50.48,0,0,1-15.32-17.23q-5.91-11.7-6.65-27.53,0-16.13,0-32.26,99.6-9.28,199.33-17.11a38,38,0,0,0,18.51-6.29q8.15-5.47,8.17-16.51,0-7.83-3.68-11.73a17.9,17.9,0,0,0-9.61-5.14,48.15,48.15,0,0,0-13-.77l-14.06.93Q128.7,213.78,66.93,218.37Z"/>
</svg>
